HIERARCHY
ROOT SpineBase
{
  OFFSET 0.000000 0.000000 0.000000
  CHANNELS 6 Xposition Yposition Zposition Zrotation Xrotation Yrotation
  JOINT SpineMid
  {
    OFFSET 0.000000 30.317814 0.000000
    CHANNELS 3 Zrotation Xrotation Yrotation
    JOINT SpineShoulder
    {
      OFFSET 0.138675 22.521318 -0.761895
      CHANNELS 3 Zrotation Xrotation Yrotation
      JOINT Neck
      {
        OFFSET 0.092177 7.455304 -0.563242
        CHANNELS 3 Zrotation Xrotation Yrotation
        JOINT Head
        {
          OFFSET 3.013650 14.714951 1.028584
          CHANNELS 3 Zrotation Xrotation Yrotation
          End Site
          {
            OFFSET 0 0 0
          }
        }
      }
      JOINT ShoulderLeft
      {
        OFFSET -14.203922 -1.988119 -9.765940
        CHANNELS 3 Zrotation Xrotation Yrotation
        JOINT ElbowLeft
        {
          OFFSET -6.038684 -23.057838 -5.610496
          CHANNELS 3 Zrotation Xrotation Yrotation
          JOINT WristLeft
          {
            OFFSET 6.101059 -20.829190 -5.815591
            CHANNELS 3 Zrotation Xrotation Yrotation
            JOINT HandLeft
            {
              OFFSET 0.890815 -5.383417 -0.187022
              CHANNELS 3 Zrotation Xrotation Yrotation
              JOINT HandTipLeft
              {
                OFFSET 2.216868 -7.611315 -0.777922
                CHANNELS 3 Zrotation Xrotation Yrotation
                End Site
                {
                  OFFSET 0 0 0
                }
              }
              JOINT ThumbLeft
              {
                OFFSET -3.123325 0.440438 -2.052465
                CHANNELS 3 Zrotation Xrotation Yrotation
                End Site
                {
                  OFFSET 0 0 0
                }
              }
            }
          }
        }
      }
      JOINT ShoulderRight
      {
        OFFSET 15.172810 -5.736148 8.584037
        CHANNELS 3 Zrotation Xrotation Yrotation
        JOINT ElbowRight
        {
          OFFSET 1.608351 -26.405619 1.402286
          CHANNELS 3 Zrotation Xrotation Yrotation
          JOINT WristRight
          {
            OFFSET -0.006768 -26.557607 -11.553583
            CHANNELS 3 Zrotation Xrotation Yrotation
            JOINT HandRight
            {
              OFFSET -0.134053 -2.322123 -3.151759
              CHANNELS 3 Zrotation Xrotation Yrotation
              JOINT HandTipRight
              {
                OFFSET 0.586783 -5.508514 -6.642054
                CHANNELS 3 Zrotation Xrotation Yrotation
                End Site
                {
                  OFFSET 0 0 0
                }
              }
              JOINT ThumbRight
              {
                OFFSET -1.884707 -3.310613 0.538901
                CHANNELS 3 Zrotation Xrotation Yrotation
                End Site
                {
                  OFFSET 0 0 0
                }
              }
            }
          }
        }
      }
    }
  }
  JOINT HipLeft
  {
    OFFSET -6.321338 1.219660 -7.171793
    CHANNELS 3 Zrotation Xrotation Yrotation
    JOINT KneeLeft
    {
      OFFSET -6.518217 -29.213092 -8.969614
      CHANNELS 3 Zrotation Xrotation Yrotation
      JOINT AnkleLeft
      {
        OFFSET -3.572686 -39.346150 0.309610
        CHANNELS 3 Zrotation Xrotation Yrotation
        JOINT FootLeft
        {
          OFFSET 3.292358 -7.416156 -10.453906
          CHANNELS 3 Zrotation Xrotation Yrotation
          End Site
          {
            OFFSET 0 0 0
          }
        }
      }
    }
  }
  JOINT HipRight
  {
    OFFSET 6.934217 -0.034858 0.000680
    CHANNELS 3 Zrotation Xrotation Yrotation
    JOINT KneeRight
    {
      OFFSET -6.358459 -34.712939 2.847545
      CHANNELS 3 Zrotation Xrotation Yrotation
      JOINT AnkleRight
      {
        OFFSET -10.446576 -36.271777 1.061452
        CHANNELS 3 Zrotation Xrotation Yrotation
        JOINT FootRight
        {
          OFFSET 5.737885 -5.133057 -5.364514
          CHANNELS 3 Zrotation Xrotation Yrotation
          End Site
          {
            OFFSET 0 0 0
          }
        }
      }
    }
  }
}
MOTION
Frames: 8
Frame Time: 0.033333
-33.741422 76.420684 394.662057 -0.000000 0.000000 -28.417459 0.000000 0.000000 28.417459 -0.000000 0.000000 0.000000 -0.000000 0.000000 0.000000 0.000000 0.000000 0.000000 -0.000000 0.000000 0.000000 -0.000000 0.000000 0.000000 -0.000000 0.000000 0.000000 -0.000000 0.000000 0.000000 0.000000 0.000000 0.000000 0.000000 0.000000 0.000000 -0.000000 0.000000 0.000000 -0.000000 0.000000 0.000000 -0.000000 0.000000 0.000000 -0.000000 0.000000 0.000000 0.000000 0.000000 0.000000 0.000000 0.000000 0.000000 0.000000 0.000000 28.417459 -0.000000 0.000000 0.000000 -0.000000 0.000000 0.000000 0.000000 0.000000 0.000000 0.000000 0.000000 28.417459 -0.000000 0.000000 0.000000 -0.000000 0.000000 0.000000 0.000000 0.000000 0.000000
-33.704875 76.428038 394.484954 -0.002667 0.008487 -28.498384 0.006393 -0.006186 28.498384 -0.000000 0.000000 0.000000 -0.000000 0.000000 0.000000 0.000000 0.000000 0.000000 -0.000000 0.000000 0.000000 -1.178949 -0.080684 0.305696 4.136326 0.335589 -0.374431 -6.634437 -1.073742 0.152868 0.000000 0.000000 0.000000 0.000000 0.000000 0.000000 -0.000000 0.000000 0.000000 -0.770633 -0.648403 0.331880 -3.226132 2.221257 5.000267 4.539121 -2.444487 -6.088403 0.000000 0.000000 0.000000 0.000000 0.000000 0.000000 0.006393 -0.006186 28.498384 -0.000000 0.000000 0.000000 -0.352131 -0.734189 0.169937 0.000000 0.000000 0.000000 0.006393 -0.006186 28.498384 -0.000000 0.000000 0.000000 0.194190 -1.713223 -2.144478 0.000000 0.000000 0.000000
-33.665751 76.431765 394.325314 -0.014768 0.002225 -28.574454 0.014034 0.005109 28.574454 -0.000000 0.000000 0.000000 -0.000000 0.000000 0.000000 0.000000 0.000000 0.000000 0.389081 -0.850283 0.131255 -2.403038 0.737773 0.433766 7.286440 0.744081 -0.639054 -11.618500 -1.934495 0.183306 0.000000 0.000000 0.000000 0.000000 0.000000 0.000000 -0.067835 1.150361 0.067187 -1.327620 -2.301673 0.500638 -6.480185 3.496882 9.953520 8.474625 -4.701073 -11.567749 0.000000 0.000000 0.000000 0.000000 0.000000 0.000000 0.198818 -0.931511 28.867481 0.290380 0.909443 -0.293838 -0.656435 -1.322307 0.337037 0.000000 0.000000 0.000000 0.014034 0.005109 28.574454 -0.000000 0.000000 0.000000 0.269240 -3.069509 -3.801273 0.000000 0.000000 0.000000
-33.624049 76.431863 394.183139 -0.036299 -0.018778 -28.645640 0.022854 0.033881 28.645627 -0.000000 0.000000 0.000000 0.083864 0.991854 -0.209631 0.000000 0.000000 0.000000 0.484708 -1.178351 0.196365 -2.964276 1.083523 0.530024 9.595856 1.245996 -0.789085 -15.198757 -2.580023 0.134477 0.000000 0.000000 0.000000 0.000000 0.000000 0.000000 -0.104418 1.513799 0.088111 -1.772060 -3.026336 0.658885 -8.970813 3.620505 13.838301 11.361096 -6.070855 -15.741530 0.000000 0.000000 0.000000 0.000000 0.000000 0.000000 0.264905 -1.203700 29.034246 0.864945 1.878215 -0.461243 -1.384193 -2.450716 0.548505 0.000000 0.000000 0.000000 0.022854 0.033881 28.645627 -0.000000 0.000000 0.000000 0.258335 -4.066415 -4.977384 0.000000 0.000000 0.000000
-33.579769 76.428335 394.058427 -0.067250 -0.054511 -28.711912 0.032794 0.080116 28.711857 -0.000000 0.000000 0.000000 0.030946 1.242915 -0.256879 0.000000 0.000000 0.000000 0.515830 -1.445036 0.260562 -3.076440 1.421002 0.527405 11.162712 1.867882 -0.822406 -17.522783 -3.014471 0.040830 0.000000 0.000000 0.000000 0.000000 0.000000 0.000000 -0.142581 1.738747 0.100595 -2.075454 -3.471945 0.770706 -9.929375 2.621228 15.642077 12.823158 -5.833938 -17.928014 0.000000 0.000000 0.000000 0.000000 0.000000 0.000000 0.307771 -1.349818 29.162384 1.013956 2.133082 -0.534327 -1.678625 -2.828162 0.718655 0.000000 0.000000 0.000000 0.032794 0.080116 28.711857 -0.836000 -0.022873 -0.018006 1.022878 -4.684183 -5.662795 0.000000 0.000000 0.000000
-33.532911 76.421179 393.951180 -0.107611 -0.104960 -28.773244 0.043803 0.143799 28.773090 -0.000000 0.000000 0.000000 -0.062598 1.454470 -0.292431 0.000000 0.000000 0.000000 0.482678 -1.652025 0.323687 -2.737466 1.750343 0.417908 12.058748 2.643769 -0.739755 -18.647108 -3.239961 -0.069063 0.000000 0.000000 0.000000 0.000000 0.000000 0.000000 -0.182262 1.826791 0.104604 -2.239844 -3.640910 0.842708 -8.913966 0.626101 14.720965 12.544806 -3.561955 -17.574915 0.000000 0.000000 0.000000 0.000000 0.000000 0.000000 0.326789 -1.371095 29.251978 1.090789 2.203308 -0.564581 -1.890975 -2.985604 0.888405 0.000000 0.000000 0.000000 0.043803 0.143799 28.773090 -0.947227 -0.082865 -0.004528 1.012708 -4.914618 -5.913231 0.000000 0.000000 0.000000
-33.496863 76.423411 393.851224 -0.129277 -0.140127 -28.793835 0.045800 0.185069 28.793603 -0.000000 0.000000 0.000000 -0.227936 1.502706 -0.288470 0.000000 0.000000 0.000000 0.503399 -1.877047 0.379334 -2.313008 1.910198 0.213726 13.391477 6.402736 -0.479928 -19.879899 -7.030731 -1.708986 0.000000 0.000000 0.000000 0.000000 0.000000 0.000000 -0.265983 1.754412 0.096908 -2.154510 -3.513544 0.856552 -6.110048 -6.241229 11.601292 11.206012 4.511346 -15.608401 0.000000 0.000000 0.000000 0.000000 0.000000 0.000000 0.385772 -1.687533 29.388448 1.372080 2.727781 -0.709102 -2.224380 -3.267990 1.120608 0.000000 0.000000 0.000000 0.045800 0.185069 28.793603 -0.999834 -0.223771 0.033151 0.774266 -4.234371 -5.007482 0.000000 0.000000 0.000000
-33.423244 76.415234 393.799933 -0.154431 -0.251509 -28.753598 0.014403 0.294785 28.753222 -0.000000 0.000000 0.000000 -0.256150 1.727418 -0.331537 0.000000 0.000000 0.000000 0.418256 -1.956806 0.420040 -1.228932 2.165625 -0.086653 12.716767 7.178969 -0.197477 -18.237233 -6.347616 -1.465706 0.000000 0.000000 0.000000 0.000000 0.000000 0.000000 -0.327176 1.640427 0.087315 -2.164720 -3.332578 0.901992 -1.790567 -7.664625 5.522857 6.765257 8.532718 -9.367466 0.000000 0.000000 0.000000 0.000000 0.000000 0.000000 0.179090 -1.646130 29.396989 1.596480 2.696363 -0.763757 -2.366485 -3.155620 1.319477 0.000000 0.000000 0.000000 0.014403 0.294785 28.753222 -0.910252 -0.331788 0.066127 0.441906 -3.674445 -4.249696 0.000000 0.000000 0.000000
